Coordinates
version=1
nRows=4
nColumns=63
inDegrees=yes

Units are S.I. units (second, meters, Newtons, ...)
If the header above contains a line with 'inDegrees', this indicates whether rotational values are in degrees (yes) or radians (no).

endheader
time	pelvis_tilt	pelvis_list	pelvis_rotation	pelvis_tx	pelvis_ty	pelvis_tz	hip_flexion_r	hip_adduction_r	hip_rotation_r	knee_angle_r	knee_angle_r_beta	ankle_angle_r	subtalar_angle_r	mtp_angle_r	hip_flexion_l	hip_adduction_l	hip_rotation_l	knee_angle_l	knee_angle_l_beta	ankle_angle_l	subtalar_angle_l	mtp_angle_l	L5_S1_Flex_Ext	L5_S1_Lat_Bending	L5_S1_axial_rotation	L4_L5_Flex_Ext	L4_L5_Lat_Bending	L4_L5_axial_rotation	L3_L4_Flex_Ext	L3_L4_Lat_Bending	L3_L4_axial_rotation	L2_L3_Flex_Ext	L2_L3_Lat_Bending	L2_L3_axial_rotation	L1_L2_Flex_Ext	L1_L2_Lat_Bending	L1_L2_axial_rotation	L1_T12_Flex_Ext	L1_T12_Lat_Bending	L1_T12_axial_rotation	Abs_r3	Abs_r2	Abs_r1	Abs_t1	Abs_t2	neck_flexion	neck_bending	neck_rotation	arm_flex_r	arm_add_r	arm_rot_r	elbow_flex_r	pro_sup_r	wrist_flex_r	wrist_dev_r	arm_flex_l	arm_add_l	arm_rot_l	elbow_flex_l	pro_sup_l	wrist_flex_l	wrist_dev_l
      3.27118644	      0.03877389	      1.64973097	     92.18933988	      0.18283514	      0.96893484	      0.51486338	      0.71436042	     -0.04754771	      6.99794263	      5.47456078	      0.09554911	     24.01400512	      2.87102202	      0.00000000	     -0.62173631	     -1.06833078	     -7.58805524	      3.02906991	      0.05286724	     23.98914953	      8.30693680	      0.00000000	      0.09404993	     -0.05357549	     -0.23856134	      0.17466013	     -0.07125540	     -0.25347142	      0.15451463	     -0.13026345	     -0.25347142	      0.10748967	     -0.13026345	     -0.20874117	      0.08733477	     -0.10925114	     -0.19383109	      0.05374013	     -0.08298844	     -0.17892100	      0.67178926	     -0.60605667	     -1.32680660	      0.00000000	      0.00000000	     15.61761750	      4.60864288	    -11.77425000	     31.81082323	      3.97340336	     25.03161449	    129.55694820	     89.23415741	    -11.37914440	      2.32151534	     18.07359625	     -7.11344061	     49.21311040	     94.59756243	     85.73521955	     15.02991589	     11.02368733
      3.28813559	     -0.12387266	      1.66878968	     92.09918241	      0.18336598	      0.96915020	      0.51450668	      0.65922094	     -0.15634623	      7.55179506	      5.43972033	      0.09494103	     23.91733507	      1.96798294	      0.00000000	     -0.66663372	     -0.94387807	     -8.29324993	      3.06007197	      0.05340833	     24.02403951	      9.17490542	      0.00000000	      0.11078098	     -0.08132595	     -0.14300402	      0.20573136	     -0.10816351	     -0.15194177	      0.18200207	     -0.19773591	     -0.15194177	      0.12661158	     -0.19773591	     -0.12512852	      0.10287122	     -0.16583987	     -0.11619076	      0.06330025	     -0.12597389	     -0.10725301	      0.79129745	     -0.91997537	     -0.79534545	      0.00000000	      0.00000000	     15.11319474	      4.12718467	    -13.00682842	     30.49690884	      4.05625434	     25.87180701	    130.13767922	     89.21281656	    -12.65522473	     -1.37449015	     18.04043324	     -6.84909598	     49.29839344	     94.22877475	     83.21406389	     16.09247894	     10.99709499
      3.30508475	     -0.13904332	      1.83767426	     92.08245553	      0.18339572	      0.96932921	      0.51413299	      0.49158113	     -0.16160795	      7.49131380	      5.52754474	      0.09647386	     23.90769425	      1.86090491	      0.00000000	     -0.84529900	     -0.93290195	     -8.37838677	      3.09892038	      0.05408636	     24.04922271	      9.15058670	      0.00000000	      0.09676910	     -0.07649164	     -0.13751004	      0.17970989	     -0.10173389	     -0.14610442	      0.15898195	     -0.18598178	     -0.14610442	      0.11059740	     -0.18598178	     -0.12032128	      0.08985978	     -0.15598176	     -0.11172691	      0.05529386	     -0.11848556	     -0.10313253	      0.69121198	     -0.86528877	     -0.76478959	      0.00000000	      0.00000000	     14.91141449	      4.01949877	    -12.89794132	     29.46332988	      3.75711869	     26.42450658	    131.44399605	     89.24734528	    -12.39108369	     -1.88601958	     17.95834062	     -6.84867472	     49.24286913	     94.42207035	     83.07724234	     16.13967302	     10.94508128
      3.32203390	     -0.07206032	      1.73107914	     91.83386939	      0.18363737	      0.96940702	      0.51301282	      0.44115453	     -0.08464427	      7.75990950	      5.26394565	      0.09187318	     23.63013565	      1.57773296	      0.00000000	     -0.93838537	     -0.96701730	     -8.54003282	      2.79627416	      0.04880419	     23.88922616	      9.14402542	      0.00000000	      0.15727077	     -0.07426888	      0.00712211	      0.29206754	     -0.09877761	      0.00756724	      0.25838015	     -0.18057736	      0.00756724	      0.17974476	     -0.18057736	      0.00623184	      0.14604164	     -0.15144910	      0.00578671	      0.08986452	     -0.11504250	      0.00534158	      1.12336937	     -0.84014443	      0.03961101	      0.00000000	      0.00000000	     13.72701071	      3.73838061	    -13.93125811	     27.70538217	      3.42113855	     25.59635543	    132.47442755	     89.28152698	    -10.55131815	     -5.10761157	     18.08752598	     -6.59548647	     49.84655460	     93.95034050	     82.12470019	     16.61911641	     10.79808068
